# xmcd CD database file
#
# Track frame offsets:
#	150
#	14416
#	36370
#	59659
#	68538
#	78069
#	101354
#	108486
#	127202
#	147461
#	168101
#	182230
#	204664
#	221628
#	264549
#	277781
#
# Disc length: 3813 seconds
#
# Revision: 0
# Processed by: cddbd v1.5.2PL0 Copyright (c) Steve Scherf et al.
# Submitted via: CDex 1.70beta3
#
DISCID=ea0ee310
DTITLE=Bill Frisell - When You Wish Upon a Star
DYEAR=2016
DGENRE=Jazz
TTITLE0=To Kill a Mockingbird, Pt. 1
TTITLE1=To Kill a Mockingbird, Pt. 2
TTITLE2=You Only Live Twice
TTITLE3=Psycho, Pt. 1
TTITLE4=Psycho, Pt. 2
TTITLE5=The Shadow of Your Smile
TTITLE6=Bonanza
TTITLE7=Once Upon a Time in the West (Theme)
TTITLE8=As a Judgement
TTITLE9=Farewell to Cheyenne
TTITLE10=When You Wish Upon a Star
TTITLE11=Tales from the Far Side
TTITLE12=Moon River
TTITLE13=The Godfather
TTITLE14=The Bad and the Beautiful
TTITLE15=Happy Trails
EXTD=YEAR: 2016
EXTT0=
EXTT1=
EXTT2=
EXTT3=
EXTT4=
EXTT5=
EXTT6=
EXTT7=
EXTT8=
EXTT9=
EXTT10=
EXTT11=
EXTT12=
EXTT13=
EXTT14=
EXTT15=
PLAYORDER=
